<?xml version="1.0" standalone="no"?>
<!DOCTYPE svg PUBLIC "-//W3C//DTD SVG 20010904//EN"
 "http://www.w3.org/TR/2001/REC-SVG-20010904/DTD/svg10.dtd">
<svg version="1.0" xmlns="http://www.w3.org/2000/svg"
 width="800.000000pt" height="800.000000pt" viewBox="0 0 800.000000 800.000000"
 preserveAspectRatio="xMidYMid meet">
<metadata>
Created by potrace 1.11, written by Peter Selinger 2001-2013
</metadata>
<g transform="translate(0.000000,800.000000) scale(0.100000,-0.100000)"
fill="#000000" stroke="none">
<path d="M0 4000 l0 -4000 4000 0 4000 0 0 4000 0 4000 -4000 0 -4000 0 0
-4000z m4275 3632 c219 -51 365 -121 525 -250 207 -166 342 -399 407 -703 13
-64 18 -128 17 -269 0 -160 -3 -196 -23 -270 -34 -130 -66 -213 -136 -355 -96
-197 -170 -314 -545 -870 -147 -218 -254 -390 -343 -550 -74 -134 -172 -344
-164 -351 7 -8 153 57 287 128 211 111 339 192 885 559 471 316 684 428 955
500 74 20 110 23 270 23 141 1 205 -4 269 -17 304 -65 537 -200 703 -407 131
-161 203 -317 255 -545 14 -61 18 -122 18 -255 0 -187 -10 -252 -62 -415 -79
-247 -243 -466 -452 -605 -132 -88 -281 -148 -462 -187 -64 -13 -128 -18 -269
-17 -160 0 -196 3 -270 23 -130 34 -213 66 -355 136 -173 85 -290 156 -600
364 -556 374 -670 445 -885 559 -134 71 -280 136 -287 128 -8 -7 90 -217 164
-351 89 -160 196 -332 343 -550 375 -556 449 -673 545 -870 70 -142 102 -225
136 -355 20 -74 23 -110 23 -270 1 -141 -4 -205 -17 -269 -65 -304 -200 -537
-407 -703 -161 -131 -317 -203 -545 -255 -113 -25 -397 -25 -510 0 -228 52
-384 124 -545 255 -207 166 -342 399 -407 703 -13 64 -18 128 -17 269 0 160 3
196 23 270 34 130 66 213 136 355 96 197 170 314 545 870 147 218 254 390 343
550 74 134 172 344 164 351 -7 8 -153 -57 -287 -128 -211 -111 -339 -192 -885
-559 -471 -316 -684 -428 -955 -500 -74 -20 -110 -23 -270 -23 -141 -1 -205 4
-269 17 -304 65 -537 200 -703 407 -131 161 -203 317 -255 545 -14 61 -18 122
-18 255 0 187 10 252 62 415 79 247 243 466 452 605 132 88 281 148 462 187
64 13 128 18 269 17 160 0 196 -3 270 -23 130 -34 213 -66 355 -136 173 -85
290 -156 600 -364 438 -294 525 -351 670 -438 131 -79 431 -233 483 -248 22
-6 23 -5 17 17 -17 56 -172 356 -257 498 -97 160 -132 213 -429 655 -316 471
-428 684 -500 955 -20 74 -23 110 -23 270 -1 141 4 205 17 269 65 304 200 537
407 703 184 149 353 220 640 272 14 2 97 3 185 2 120 -2 183 -8 250 -24z"/>
</g>
</svg>
